<svg id="Layer_1" data-name="Layer 1" xmlns="http://www.w3.org/2000/svg" viewBox="0 0 500 500"><defs><style>.cls-1{fill:#efefef;}.cls-2{fill:#d3d3d3;}.cls-3{fill:#df3333;}.cls-4{fill:#b52d2d;}.cls-5{fill:none;stroke:#000;stroke-linecap:round;stroke-linejoin:round;stroke-width:15px;}.cls-6{fill:#845230;}.cls-7{fill:#3fa534;}.cls-8{fill:#37872b;}</style></defs><title>calendar</title><rect class="cls-1" x="8.45" y="35.46" width="483.1" height="429.08" rx="25" ry="25"/><path class="cls-2" d="M466.55,35.46H430.27a25,25,0,0,1,25,25V439.54a25,25,0,0,1-25,25h36.28a25,25,0,0,0,25-25V60.46A25,25,0,0,0,466.55,35.46Z"/><path class="cls-3" d="M466.55,35.46H33.45a25,25,0,0,0-25,25v75h483.1v-75A25,25,0,0,0,466.55,35.46ZM108.4,101.66a16.18,16.18,0,1,1,16.18-16.18A16.18,16.18,0,0,1,108.4,101.66Zm283.2,0a16.18,16.18,0,1,1,16.18-16.18A16.17,16.17,0,0,1,391.6,101.66Z"/><path class="cls-4" d="M466.55,35.46H430.27a25,25,0,0,1,25,25v75h36.28v-75A25,25,0,0,0,466.55,35.46Z"/><rect class="cls-5" x="8.45" y="35.46" width="483.1" height="429.08" rx="25" ry="25"/><path class="cls-5" d="M466.55,35.46H33.45a25,25,0,0,0-25,25v75h483.1v-75A25,25,0,0,0,466.55,35.46ZM108.4,101.66a16.18,16.18,0,1,1,16.18-16.18A16.18,16.18,0,0,1,108.4,101.66Zm283.2,0a16.18,16.18,0,1,1,16.18-16.18A16.17,16.17,0,0,1,391.6,101.66Z"/><rect class="cls-6" x="237.65" y="392.38" width="24.45" height="39.75"/><path class="cls-7" d="M306.65,312.2h5.57a5.12,5.12,0,0,0,4.39-7.77l-40.19-66.62H283a5.12,5.12,0,0,0,4.39-7.77l-32.45-53.77a5.12,5.12,0,0,0-8.78,0L213.71,230a5.13,5.13,0,0,0,4.4,7.77h6.58L184.5,304.42a5.12,5.12,0,0,0,4.39,7.78h5.56l-43.69,72.4a5.13,5.13,0,0,0,4.4,7.78H346a5.13,5.13,0,0,0,4.39-7.78Z"/><path class="cls-8" d="M350.34,384.6l-43.69-72.4h5.57a5.12,5.12,0,0,0,4.39-7.77l-40.19-66.62H283a5.12,5.12,0,0,0,4.39-7.77l-32.45-53.77a5.12,5.12,0,0,0-8.78,0l-8.77,14.53L261.07,230a5.13,5.13,0,0,1-4.4,7.77h-1a3.14,3.14,0,0,0-2.69,4.77l37.32,61.85a5.12,5.12,0,0,1-4.39,7.77h0a3.15,3.15,0,0,0-2.7,4.77L324,384.6a5.12,5.12,0,0,1-4.39,7.78H346A5.13,5.13,0,0,0,350.34,384.6Z"/><path class="cls-5" d="M306.65,312.2h5.57a5.12,5.12,0,0,0,4.39-7.77l-40.19-66.62H283a5.12,5.12,0,0,0,4.39-7.77l-32.45-53.77a5.12,5.12,0,0,0-8.78,0L213.71,230a5.13,5.13,0,0,0,4.4,7.77h6.58L184.5,304.42a5.12,5.12,0,0,0,4.39,7.78h5.56l-43.69,72.4a5.13,5.13,0,0,0,4.4,7.78H346a5.13,5.13,0,0,0,4.39-7.78Z"/><rect class="cls-5" x="237.65" y="392.38" width="24.45" height="39.75"/></svg>