<svg xmlns="http://www.w3.org/2000/svg" viewBox="0 0 106 106"><defs><style>.cls-1{fill:#70cbf6;}.cls-2{fill:#fff;}.cls-3{fill:#171c1f;}.cls-4{opacity:0.1;}</style></defs><title>minus</title><g id="Minus"><g id="Fill"><circle class="cls-1" cx="53" cy="53" r="51"/></g><g id="Green"><rect class="cls-2" x="27" y="46" width="52" height="14" rx="3" ry="3"/></g><g id="Inner_Lines" data-name="Inner Lines"><path class="cls-3" d="M76,45H30a4,4,0,0,0-4,4v8a4,4,0,0,0,4,4H76a4,4,0,0,0,4-4V49A4,4,0,0,0,76,45Zm2,12a2,2,0,0,1-2,2H30a2,2,0,0,1-2-2V49a2,2,0,0,1,2-2H76a2,2,0,0,1,2,2Z"/></g><g id="Shadows" class="cls-4"><path d="M102,52A49,49,0,0,1,4,52c0,.33,0,.66,0,1a49,49,0,0,0,98,0C102,52.66,102,52.33,102,52ZM30,59H76a2,2,0,0,0,2-2V55a2,2,0,0,1-2,2H30a2,2,0,0,1-2-2v2A2,2,0,0,0,30,59Zm0,6H76a4,4,0,0,0,4-4V57a4,4,0,0,1-4,4H30a4,4,0,0,1-4-4v4A4,4,0,0,0,30,65Z"/></g><g id="Outline"><path class="cls-3" d="M53,0a53,53,0,1,0,53,53A53,53,0,0,0,53,0Zm0,102a49,49,0,1,1,49-49A49,49,0,0,1,53,102Z"/></g></g></svg>