<svg xmlns="http://www.w3.org/2000/svg" viewBox="0 0 106 106"><defs><style>.cls-1{fill:#43d490;}.cls-2{fill:#fff;}.cls-3{fill:#171c1f;}.cls-4{opacity:0.1;}</style></defs><title>plus</title><g id="Plus"><g id="Fill"><circle class="cls-1" cx="53" cy="53" r="51"/></g><g id="Blue"><path class="cls-2" d="M76,46H60V30a3,3,0,0,0-3-3H49a3,3,0,0,0-3,3V46H30a3,3,0,0,0-3,3v8a3,3,0,0,0,3,3H46V76a3,3,0,0,0,3,3h8a3,3,0,0,0,3-3V60H76a3,3,0,0,0,3-3V49A3,3,0,0,0,76,46Z"/></g><g id="Inner_Lines" data-name="Inner Lines"><path class="cls-3" d="M76,45H61V30a4,4,0,0,0-4-4H49a4,4,0,0,0-4,4V45H30a4,4,0,0,0-4,4v8a4,4,0,0,0,4,4H45V76a4,4,0,0,0,4,4h8a4,4,0,0,0,4-4V61H76a4,4,0,0,0,4-4V49A4,4,0,0,0,76,45Zm2,12a2,2,0,0,1-2,2H59V76a2,2,0,0,1-2,2H49a2,2,0,0,1-2-2V59H30a2,2,0,0,1-2-2V49a2,2,0,0,1,2-2H47V30a2,2,0,0,1,2-2h8a2,2,0,0,1,2,2V47H76a2,2,0,0,1,2,2Z"/></g><g id="Shadows" class="cls-4"><path d="M102,52A49,49,0,0,1,4,52c0,.33,0,.66,0,1a49,49,0,0,0,98,0C102,52.66,102,52.33,102,52ZM61,61v4H76a4,4,0,0,0,4-4V57a4,4,0,0,1-4,4ZM49,80a4,4,0,0,1-4-4v4a4,4,0,0,0,4,4h8a4,4,0,0,0,4-4V76a4,4,0,0,1-4,4ZM30,65H45V61H30a4,4,0,0,1-4-4v4A4,4,0,0,0,30,65Zm0-6H47V57H30a2,2,0,0,1-2-2v2A2,2,0,0,0,30,59Zm48-2V55a2,2,0,0,1-2,2H59v2H76A2,2,0,0,0,78,57ZM47,76a2,2,0,0,0,2,2h8a2,2,0,0,0,2-2V74a2,2,0,0,1-2,2H49a2,2,0,0,1-2-2Z"/></g><g id="Outline"><path class="cls-3" d="M53,0a53,53,0,1,0,53,53A53,53,0,0,0,53,0Zm0,102a49,49,0,1,1,49-49A49,49,0,0,1,53,102Z"/></g></g></svg>