<svg xmlns="http://www.w3.org/2000/svg" viewBox="0 0 106 106"><defs><style>.cls-1{fill:#ff8f59;}.cls-2{fill:#ffc868;}.cls-3{fill:#171c1f;}.cls-4{opacity:0.25;}.cls-5{opacity:0.1;}</style></defs><title>tag</title><g id="Tag"><g id="Fill"><path class="cls-1" d="M98,2H62a6,6,0,0,0-4.24,1.76l-54,54a6,6,0,0,0,0,8.49l36,36a6,6,0,0,0,8.49,0l54-54A6,6,0,0,0,104,44V8A6,6,0,0,0,98,2ZM85,29a8,8,0,1,1,8-8A8,8,0,0,1,85,29Z"/></g><g id="Yellow"><path class="cls-2" d="M48.24,93.76h0l-36-36h0l-4-4-.83,2.3A6,6,0,0,0,3.76,66.24l36,36h0a6,6,0,0,0,10.18-3.66l2.3-.83Z"/></g><g id="Inner_Lines_1" data-name="Inner Lines 1"><rect class="cls-3" x="29.5" y="45.09" width="2" height="60.81" transform="translate(-44.45 43.68) rotate(-45)"/></g><g id="Inner_Lines_2" data-name="Inner Lines 2" class="cls-4"><path d="M46.29,51.29l-10,10,1.41,1.41,10-10Zm2-14-18,18,1.41,1.41,18-18Zm18,6-24,24,1.41,1.41,24-24Zm2,10-20,20,1.41,1.41,20-20Z"/></g><g id="Shadows" class="cls-5"><path d="M85,32a9,9,0,0,0,8.94-10,9,9,0,0,1-17.88,0A9,9,0,0,0,85,32ZM45.41,99.41a2,2,0,0,1-2.83,0L4.15,61a3.9,3.9,0,0,0,1,3.85l36,36a4,4,0,0,0,5.66,0l54-54A4,4,0,0,0,102,44V42.83Z"/></g><g id="Outline"><path class="cls-3" d="M85,12a9,9,0,1,0,9,9A9,9,0,0,0,85,12Zm0,16a7,7,0,1,1,7-7A7,7,0,0,1,85,28ZM98,0H62a8,8,0,0,0-5.66,2.34l-54,54a8,8,0,0,0,0,11.31l36,36a8,8,0,0,0,11.31,0l54-54A8,8,0,0,0,106,44V8A8,8,0,0,0,98,0Zm4,44a4,4,0,0,1-1.17,2.83l-54,54a4,4,0,0,1-5.66,0l-36-36a4,4,0,0,1,0-5.66l54-54A4,4,0,0,1,62,4H98a4,4,0,0,1,4,4Z"/></g></g></svg>