<svg id="Layer_1" data-name="Layer 1" xmlns="http://www.w3.org/2000/svg" viewBox="0 0 500 500"><defs><style>.cls-1{fill:#f2c594;}.cls-2{fill:#d82f23;}.cls-3{fill:#b70808;}.cls-4{fill:#444;}.cls-5{fill:#2d2d2d;}.cls-6{fill:#ffc612;}.cls-7{fill:#f2a203;}.cls-8{fill:#ffecc7;}.cls-9{fill:#ffd48f;}.cls-10,.cls-12{fill:none;stroke-linecap:round;stroke-linejoin:round;stroke-width:15px;}.cls-10{stroke:#000;}.cls-11{fill:#e09f69;}.cls-12{stroke:#ffc612;}</style></defs><title>writing</title><polygon class="cls-1" points="407.39 425.24 442.46 492.08 477.54 425.24 407.39 425.24"/><path class="cls-2" d="M424.81,7.92h35.3a17.43,17.43,0,0,1,17.43,17.43V69.48a0,0,0,0,1,0,0H407.39a0,0,0,0,1,0,0V25.35A17.43,17.43,0,0,1,424.81,7.92Z"/><path class="cls-3" d="M460.12,7.92h-27a17.42,17.42,0,0,1,17.42,17.43V69.48h27V25.35A17.42,17.42,0,0,0,460.12,7.92Z"/><rect class="cls-4" x="407.39" y="69.48" width="70.16" height="37.37"/><rect class="cls-5" x="450.54" y="69.48" width="27" height="37.37"/><rect class="cls-6" x="407.39" y="106.85" width="70.16" height="318.39"/><rect class="cls-7" x="450.54" y="106.85" width="27" height="318.39"/><path class="cls-8" d="M22.46,8.42V72.18H49.55a17.92,17.92,0,0,1,0,35.83H22.46v44H49.55A17.91,17.91,0,0,1,67.46,170h0a17.91,17.91,0,0,1-17.91,17.92H22.46v44H49.55a17.92,17.92,0,0,1,0,35.83H22.46v44H49.55a17.91,17.91,0,0,1,17.91,17.91h0a17.91,17.91,0,0,1-17.91,17.91H22.46v44H49.55a17.91,17.91,0,0,1,0,35.82H22.46V491.2H365.84V8.42Z"/><path class="cls-8" d="M22.46,8.42V72.18H49.55a17.92,17.92,0,0,1,0,35.83H22.46v44H49.55A17.91,17.91,0,0,1,67.46,170h0a17.91,17.91,0,0,1-17.91,17.92H22.46v44H49.55a17.92,17.92,0,0,1,0,35.83H22.46v44H49.55a17.91,17.91,0,0,1,17.91,17.91h0a17.91,17.91,0,0,1-17.91,17.91H22.46v44H49.55a17.91,17.91,0,0,1,0,35.82H22.46V491.2H365.84V8.42Z"/><rect class="cls-9" x="329.84" y="8.42" width="36" height="482.78"/><rect class="cls-10" x="407.39" y="106.85" width="70.16" height="318.39"/><rect class="cls-10" x="407.39" y="69.48" width="70.16" height="37.37"/><path class="cls-10" d="M424.81,7.92h35.3a17.43,17.43,0,0,1,17.43,17.43V69.48a0,0,0,0,1,0,0H407.39a0,0,0,0,1,0,0V25.35A17.43,17.43,0,0,1,424.81,7.92Z"/><polygon class="cls-11" points="450.54 425.24 428.96 466.36 442.46 492.08 477.54 425.24 450.54 425.24"/><polygon class="cls-10" points="407.39 425.24 442.46 492.08 477.54 425.24 407.39 425.24"/><polygon class="cls-4" points="460 458.66 424.93 458.66 442.46 492.08 460 458.66"/><polygon class="cls-10" points="460 458.66 424.93 458.66 442.46 492.08 460 458.66"/><line class="cls-12" x1="98.47" y1="8.12" x2="98.47" y2="491.5"/><line class="cls-12" x1="365.84" y1="85.33" x2="98.47" y2="85.33"/><line class="cls-12" x1="365.84" y1="140.16" x2="98.47" y2="140.16"/><line class="cls-12" x1="365.84" y1="194.98" x2="98.47" y2="194.98"/><line class="cls-12" x1="365.84" y1="249.81" x2="98.47" y2="249.81"/><line class="cls-12" x1="365.84" y1="304.64" x2="98.47" y2="304.64"/><line class="cls-12" x1="365.84" y1="359.47" x2="98.47" y2="359.47"/><line class="cls-12" x1="365.84" y1="414.3" x2="98.47" y2="414.3"/><path class="cls-10" d="M22.46,8.42V72.18H49.55a17.92,17.92,0,0,1,0,35.83H22.46v44H49.55A17.91,17.91,0,0,1,67.46,170h0a17.91,17.91,0,0,1-17.91,17.92H22.46v44H49.55a17.92,17.92,0,0,1,0,35.83H22.46v44H49.55a17.91,17.91,0,0,1,17.91,17.91h0a17.91,17.91,0,0,1-17.91,17.91H22.46v44H49.55a17.91,17.91,0,0,1,0,35.82H22.46V491.2H365.84V8.42Z"/></svg>